<?xml version="1.0" standalone="no"?>
<!DOCTYPE svg PUBLIC "-//W3C//DTD SVG 20010904//EN"
 "http://www.w3.org/TR/2001/REC-SVG-20010904/DTD/svg10.dtd">
<svg version="1.0" xmlns="http://www.w3.org/2000/svg"
 width="1024.000000pt" height="1024.000000pt" viewBox="0 0 1024.000000 1024.000000"
 preserveAspectRatio="xMidYMid meet">
<metadata>
Created by potrace 1.11, written by Peter Selinger 2001-2013
</metadata>
<g transform="translate(0.000000,1024.000000) scale(0.100000,-0.100000)"
fill="#000000" stroke="none">
<path d="M5290 8857 c-14 -6 -28 -16 -31 -21 -4 -5 -14 -6 -23 -3 -9 4 -16 2
-16 -2 0 -11 -56 -31 -64 -24 -3 4 -6 1 -6 -5 0 -7 -4 -12 -10 -12 -21 0 -76
-46 -72 -60 6 -17 32 -45 32 -34 0 4 6 0 13 -9 6 -9 24 -21 39 -26 24 -9 28
-7 37 17 14 36 33 65 48 75 7 4 10 13 8 20 -3 6 8 21 25 32 16 11 30 24 30 29
0 5 8 15 18 22 21 16 6 17 -28 1z"/>
<path d="M4937 8647 c-4 -11 -12 -15 -18 -11 -7 4 -9 3 -6 -3 4 -5 -2 -19 -12
-30 -11 -12 -16 -25 -11 -32 4 -7 9 -12 11 -12 2 0 14 -2 27 -5 20 -6 26 -16
23 -36 0 -5 8 -8 19 -8 11 0 20 -4 20 -10 0 -5 9 -10 19 -10 11 0 22 -6 25
-12 3 -7 3 -3 0 10 -3 12 -3 36 1 52 5 23 12 30 31 30 13 0 24 -4 24 -10 0 -5
9 -10 20 -10 11 0 20 5 20 10 0 6 -5 10 -10 10 -6 0 -8 11 -4 25 5 22 2 26
-27 32 -19 4 -37 6 -41 5 -5 -1 -8 3 -8 10 0 6 -3 8 -7 5 -3 -4 -12 -2 -20 4
-10 9 -13 7 -13 -11 0 -16 -4 -20 -16 -16 -9 3 -19 6 -24 6 -5 0 -10 8 -12 18
-3 16 -4 16 -11 -1z"/>
<path d="M4833 8535 c-12 -14 -18 -25 -15 -25 4 0 1 -4 -7 -9 -11 -7 -10 -11
5 -19 11 -5 33 -12 49 -15 37 -6 65 -17 65 -26 -1 -21 -19 -33 -41 -25 -13 4
-27 7 -31 6 -5 -1 -8 2 -8 7 0 5 -16 12 -35 15 -26 5 -40 3 -51 -8 -17 -17
-11 -36 11 -36 10 0 14 -11 13 -35 -1 -28 -5 -35 -21 -35 -13 0 -17 5 -13 15
6 17 -20 20 -42 6 -15 -9 -15 -20 0 -38 7 -9 6 -15 -6 -19 -9 -3 -16 -12 -16
-19 0 -7 -11 -20 -24 -30 -18 -13 -23 -25 -19 -45 3 -22 -1 -29 -18 -33 -11
-3 -18 -10 -15 -15 8 -14 -13 -82 -26 -82 -6 0 -9 -3 -5 -6 3 -4 0 -19 -9 -35
-8 -16 -12 -29 -9 -29 3 0 1 -10 -6 -21 -8 -15 -8 -19 0 -15 6 4 11 2 11 -4 0
-7 7 -10 15 -6 8 3 15 1 15 -3 0 -5 9 -7 20 -4 24 6 28 -18 5 -37 -11 -10 -18
-9 -30 3 -18 19 -55 11 -55 -12 0 -9 -5 -22 -12 -29 -7 -7 -8 -12 -2 -12 5 0
10 -9 11 -21 1 -13 -3 -19 -11 -16 -7 3 -13 0 -13 -6 -1 -23 -13 -89 -19 -98
-4 -8 7 -13 26 -11 3 0 7 -8 7 -19 1 -12 -5 -19 -17 -19 -24 0 -41 -48 -26
-72 8 -14 6 -21 -9 -33 -17 -12 -18 -16 -6 -24 12 -8 13 -15 4 -33 -15 -32
-11 -130 5 -136 17 -5 15 -32 -2 -32 -11 0 -13 -7 -6 -32 5 -18 12 -51 15 -73
10 -62 11 -64 18 -71 4 -4 7 -16 7 -26 0 -11 7 -26 15 -34 8 -8 13 -25 11 -37
-3 -12 -5 -25 -5 -29 -1 -12 -31 -9 -31 2 0 6 -11 10 -25 10 -14 0 -25 6 -25
13 0 14 -35 47 -50 47 -6 0 -10 4 -10 10 0 5 -6 7 -14 4 -9 -3 -17 3 -21 18
-10 33 -35 58 -51 51 -10 -4 -14 4 -14 31 0 20 -4 36 -10 36 -5 0 -10 9 -10
19 0 10 -7 22 -16 25 -10 4 -13 13 -9 26 3 11 3 25 -2 32 -4 7 -9 24 -11 38
-2 14 -10 39 -18 56 -8 17 -14 35 -13 40 6 20 -13 126 -20 115 -11 -17 -64 -3
-57 15 3 8 1 14 -4 14 -6 0 -9 3 -7 8 1 4 -1 8 -5 9 -8 3 -57 -43 -58 -52 0
-16 -34 -54 -43 -48 -6 3 -7 1 -3 -5 4 -7 3 -12 -3 -12 -6 0 -8 -7 -5 -15 4
-9 0 -15 -7 -15 -8 0 -22 -16 -32 -36 -9 -19 -13 -33 -7 -29 5 3 10 -1 10 -10
0 -9 -6 -15 -12 -13 -21 7 -42 -23 -41 -58 1 -19 -3 -34 -8 -34 -5 0 -6 -12
-3 -27 6 -23 4 -25 -15 -20 -15 4 -21 1 -21 -11 0 -8 -8 -24 -17 -34 -16 -18
-22 -33 -26 -71 -1 -10 -8 -22 -16 -26 -8 -6 -11 -16 -6 -31 4 -14 3 -20 -3
-16 -5 3 -12 -1 -16 -9 -3 -8 -1 -15 4 -15 6 0 10 -7 10 -15 0 -8 -7 -15 -15
-15 -10 0 -16 -16 -21 -50 -4 -27 -10 -50 -15 -50 -5 0 -6 -7 -3 -15 4 -8 3
-23 -1 -32 -5 -10 -7 -26 -6 -35 1 -10 -2 -18 -7 -18 -13 0 -7 -40 7 -50 17
-10 5 -30 -17 -30 -12 0 -13 -3 -5 -11 12 -12 6 -76 -9 -96 -13 -17 -19 -375
-8 -475 5 -46 14 -84 20 -86 12 -4 13 -29 2 -34 -9 -3 17 -147 36 -203 5 -16
20 -63 32 -102 13 -40 27 -73 32 -73 5 0 7 -3 4 -8 -7 -11 17 -47 34 -50 11
-2 11 1 -2 11 -19 15 -24 43 -9 49 16 5 17 32 1 33 -8 0 -16 8 -18 19 -3 11 0
16 7 12 6 -4 11 -3 11 3 0 5 -4 13 -10 16 -5 3 -10 13 -10 22 0 12 6 14 28 8
15 -3 29 -11 30 -16 2 -5 10 -9 18 -9 8 0 14 -4 14 -9 0 -5 9 -7 20 -4 11 3
20 1 20 -3 0 -5 11 -9 25 -9 33 0 32 13 -2 20 -58 12 -78 21 -81 38 -2 10 3
17 12 17 9 0 16 5 16 11 0 5 -4 7 -10 4 -14 -9 -52 14 -47 28 2 7 10 12 18 12
8 0 13 8 11 18 -3 20 18 23 36 5 9 -9 12 -7 12 11 0 20 4 22 28 17 22 -5 24
-4 10 4 -29 18 -21 30 20 31 23 1 28 3 15 6 -21 4 -33 32 -15 34 4 0 17 2 30
5 12 2 22 -1 22 -7 0 -5 5 -7 11 -3 8 5 6 10 -5 16 -23 13 -20 26 7 30 16 2
23 11 25 32 3 26 1 28 -21 22 -18 -4 -27 -1 -31 10 -10 26 -7 36 9 30 17 -6
65 12 65 25 0 5 -7 6 -15 3 -18 -7 -20 17 -3 34 9 9 8 12 -5 12 -9 0 -17 3
-17 8 0 4 -15 7 -32 7 -23 0 -34 5 -36 18 -3 15 1 17 22 11 21 -5 26 -3 26 14
0 11 7 22 15 26 8 3 15 10 15 15 0 6 -7 8 -15 5 -9 -4 -15 0 -15 10 0 9 6 16
14 16 9 0 12 7 9 20 -3 11 -1 20 5 20 6 0 8 9 5 20 -3 11 0 20 6 20 8 0 9 6 2
18 -13 24 -14 34 -4 41 11 8 34 73 23 66 -13 -8 -40 6 -40 20 0 7 6 16 13 18
10 4 10 6 0 6 -7 1 -13 10 -13 20 0 15 7 19 30 19 17 -1 30 -5 30 -9 0 -5 8
-5 17 -2 12 5 15 2 10 -10 -4 -12 -1 -15 14 -12 26 5 24 -13 -3 -36 -21 -17
-21 -18 -4 -19 13 0 17 -5 13 -20 -4 -17 -2 -20 14 -15 20 7 24 -9 13 -53 -5
-17 -12 -21 -28 -17 -11 3 -5 -2 14 -11 19 -9 43 -20 52 -25 10 -5 24 -6 33
-3 10 4 15 0 15 -10 0 -9 7 -16 15 -16 8 0 15 -7 15 -15 0 -11 -12 -14 -47
-14 -63 1 -70 0 -56 -9 6 -4 13 -14 15 -22 2 -8 11 -23 22 -32 13 -12 16 -25
12 -42 -5 -19 -2 -24 12 -22 11 2 16 10 14 25 -3 17 2 21 22 21 14 0 29 6 33
13 4 8 19 17 33 20 22 5 26 3 28 -18 1 -14 -3 -25 -9 -25 -5 0 -8 -4 -5 -9 11
-17 -6 -72 -20 -67 -8 3 -14 1 -14 -4 0 -6 -7 -10 -15 -10 -8 0 -15 5 -15 11
0 16 -25 5 -26 -12 0 -8 -2 -22 -2 -31 -1 -9 -12 -18 -24 -20 -12 -2 -23 -8
-25 -15 -3 -7 3 -10 15 -6 11 2 23 0 26 -6 19 -30 96 6 96 44 0 8 5 15 10 15
6 0 10 7 10 15 0 8 5 15 11 15 7 0 9 10 5 25 -5 20 -2 27 18 36 15 7 22 17 19
26 -3 8 0 19 8 24 10 6 14 27 13 69 0 48 2 60 15 60 10 0 16 9 16 25 0 17 -6
25 -17 25 -52 0 -66 35 -17 45 22 5 29 11 25 22 -4 9 1 21 11 29 15 11 15 13
3 14 -20 0 -24 40 -4 40 23 0 16 17 -10 24 -29 7 -29 41 -1 41 10 0 20 6 23
13 2 7 -2 10 -12 6 -9 -3 -16 -1 -16 5 0 6 -9 11 -20 11 -11 0 -20 4 -20 9 0
5 -9 7 -20 4 -14 -4 -20 0 -20 11 0 9 7 16 15 16 8 0 15 7 15 16 0 9 8 23 18
30 20 16 52 18 52 4 0 -5 11 -10 24 -10 13 0 26 -6 29 -14 3 -7 19 -16 37 -19
17 -4 29 -11 26 -16 -3 -5 6 -8 21 -8 15 0 29 -6 31 -12 2 -6 8 -9 13 -6 5 4
19 -3 31 -14 12 -12 28 -21 35 -21 17 0 17 -18 -1 -36 -11 -10 -21 -12 -40 -4
-14 5 -26 14 -26 20 0 5 -9 10 -20 10 -18 0 -17 -2 5 -26 14 -15 25 -33 25
-40 0 -8 7 -14 16 -14 12 0 15 -6 10 -24 -3 -14 -2 -28 4 -31 5 -3 10 -13 10
-21 0 -9 6 -22 14 -29 12 -12 15 -11 20 8 3 12 6 34 6 48 0 24 16 39 41 39 5
0 9 -7 9 -15 0 -10 10 -15 30 -15 23 0 30 4 30 20 0 11 6 20 14 20 8 0 17 8
20 18 11 37 20 119 19 165 -1 26 2 47 6 47 5 0 4 21 -1 48 -5 26 -11 74 -13
108 -3 33 -11 74 -20 90 -8 16 -15 37 -15 47 0 9 -7 17 -15 17 -9 0 -15 10
-15 26 0 27 -20 54 -40 54 -7 0 -10 8 -7 20 3 14 -3 26 -20 40 -14 11 -22 20
-17 20 5 0 1 5 -8 11 -10 5 -18 19 -18 29 0 24 -2 24 53 1 31 -14 48 -16 55
-9 12 12 46 2 38 -11 -3 -5 0 -11 7 -13 22 -9 35 2 29 24 -4 17 -2 20 11 15
12 -4 17 -1 17 12 0 10 3 21 7 24 5 6 7 49 4 86 -1 5 -10 7 -21 4 -19 -5 -26
9 -21 40 0 4 -6 7 -14 7 -8 0 -15 5 -15 10 0 6 -12 10 -26 10 -14 0 -23 4 -20
8 3 5 -6 15 -19 22 -21 11 -25 21 -25 57 0 38 3 43 23 43 21 0 20 2 -10 29
-24 21 -39 27 -60 23 -25 -5 -25 -6 -7 -13 16 -6 20 -14 16 -38 -2 -17 -8 -31
-13 -31 -5 0 -6 -7 -3 -15 4 -8 10 -12 15 -9 6 3 7 -6 3 -23 -3 -15 -6 -39 -6
-52 0 -14 -14 -39 -34 -60 -19 -20 -34 -39 -34 -42 0 -12 -56 -7 -75 7 -15 11
-17 18 -9 32 9 13 7 21 -9 35 -18 15 -19 21 -9 37 10 16 9 18 -3 14 -11 -5
-15 2 -15 26 0 28 2 31 23 24 12 -3 34 -13 49 -20 34 -18 39 -17 32 1 -3 8
-15 17 -26 21 -14 4 -18 12 -15 26 6 21 -15 52 -27 41 -3 -4 -6 -1 -6 5 0 7
-9 12 -20 12 -11 0 -20 7 -20 15 0 9 6 15 13 14 26 -3 36 2 31 16 -4 10 0 15
15 15 13 0 21 -6 21 -18 0 -11 8 -18 20 -19 11 -1 20 3 20 9 0 5 8 7 18 4 16
-6 16 -5 0 8 -21 16 -23 32 -5 39 17 8 -12 27 -30 20 -8 -3 -13 2 -13 16 0 17
6 21 38 22 22 1 28 3 15 6 -22 4 -39 35 -29 52 8 13 -4 42 -15 35 -15 -9 -22
25 -9 41 9 10 9 15 1 15 -6 0 -11 -4 -11 -10 0 -5 -9 -10 -20 -10 -11 0 -20 6
-20 14 0 28 20 66 35 66 8 0 22 11 31 26 9 14 23 23 30 20 8 -3 15 -1 15 4 1
6 3 15 4 20 1 6 3 17 4 25 2 24 29 17 33 -7 2 -13 13 -27 26 -33 12 -5 22 -13
22 -17 0 -5 11 -8 25 -8 16 0 25 -6 25 -16 0 -8 -4 -12 -10 -9 -6 4 -10 -5
-10 -19 0 -16 -6 -26 -15 -26 -8 0 -15 -7 -15 -15 0 -20 -46 -20 -54 1 -3 8
-10 13 -16 9 -18 -11 11 -40 41 -40 16 0 29 3 29 8 0 4 7 7 15 7 9 0 15 -9 15
-22 1 -20 2 -21 11 -6 14 25 42 11 35 -18 -5 -18 0 -26 26 -38 17 -9 37 -16
45 -16 7 0 13 -7 13 -15 0 -8 -4 -15 -10 -15 -5 0 -10 -25 -10 -55 0 -32 -4
-55 -11 -55 -12 0 -39 25 -39 37 0 12 -41 46 -47 39 -9 -8 8 -66 22 -73 9 -6
11 -21 6 -55 -7 -40 -5 -48 13 -60 11 -7 32 -24 46 -38 15 -14 35 -30 46 -36
11 -6 20 -24 22 -43 2 -17 8 -31 13 -31 18 0 41 -70 34 -102 -4 -16 -9 -27
-13 -24 -9 10 -32 -15 -32 -35 0 -11 -7 -19 -15 -19 -8 0 -15 -3 -16 -7 0 -5
-2 -15 -3 -23 -2 -8 6 -24 17 -35 11 -11 16 -13 12 -5 -8 13 -6 13 8 1 9 -7
14 -18 10 -24 -3 -5 -1 -7 4 -4 6 4 16 0 23 -8 7 -8 21 -15 32 -15 16 0 19 -5
14 -23 -4 -16 1 -31 14 -45 11 -12 20 -26 20 -32 0 -5 4 -10 8 -10 5 0 14 -16
22 -35 8 -19 17 -35 21 -35 8 0 24 -40 21 -52 -1 -3 12 -11 28 -17 33 -11 40
-31 13 -32 -14 0 -13 -3 5 -11 12 -6 22 -17 22 -25 0 -8 -4 -11 -10 -8 -5 3
-10 2 -10 -3 0 -13 68 -43 75 -32 3 6 1 10 -4 10 -6 0 -11 11 -11 24 0 15 -7
27 -18 30 -15 5 -19 18 -20 61 -1 54 -1 55 28 55 16 0 32 5 35 10 3 6 14 10
24 10 14 0 20 10 25 39 7 46 0 71 -21 71 -8 0 -11 5 -8 10 3 6 0 10 -8 10 -16
0 -27 21 -27 51 0 11 7 19 16 19 8 0 13 4 10 9 -4 5 -3 16 0 25 9 23 57 -1 51
-26 -3 -11 0 -18 9 -18 8 0 14 -7 14 -15 0 -10 10 -15 30 -15 20 0 30 -5 30
-15 0 -9 -9 -15 -25 -15 -27 0 -29 -8 -16 -60 22 -84 22 -90 6 -90 -11 0 -14
-6 -9 -25 4 -15 2 -25 -5 -25 -6 0 -11 -7 -11 -15 0 -8 -7 -15 -16 -15 -8 0
-13 -4 -9 -10 3 -5 12 -7 20 -3 9 3 15 -1 15 -11 0 -9 6 -16 13 -17 6 -1 21
-2 31 -3 11 0 21 -7 24 -14 3 -9 -3 -13 -14 -12 -32 4 -37 1 -24 -15 15 -18 5
-49 -14 -42 -12 5 -14 -2 -12 -31 2 -28 6 -36 19 -34 12 2 17 -4 17 -19 0 -16
-5 -20 -20 -16 -11 3 -20 2 -20 -3 0 -13 30 -20 54 -14 15 3 23 1 23 -8 1 -27
9 -41 43 -77 49 -53 71 -81 62 -81 -4 0 1 -5 11 -11 9 -5 17 -17 17 -24 0 -8
5 -15 12 -15 6 0 8 -3 5 -7 -4 -3 -1 -13 7 -22 8 -9 14 -18 13 -21 -3 -11 37
-69 45 -64 4 3 8 -2 8 -10 0 -9 -5 -16 -10 -16 -6 0 -5 -8 2 -20 7 -11 21 -20
30 -20 23 0 23 -27 1 -33 -12 -3 -8 -7 15 -12 37 -9 42 -29 10 -40 l-23 -8 23
-4 c24 -5 31 -33 7 -33 -8 0 -15 -4 -15 -9 0 -4 16 -7 35 -5 24 2 35 -2 35
-12 0 -8 6 -11 15 -8 8 3 28 1 45 -4 18 -7 30 -7 30 -1 0 5 -4 9 -10 9 -5 0
-10 7 -10 16 0 13 7 15 31 10 17 -3 38 -6 46 -6 8 0 12 -4 8 -9 -5 -9 74 -32
84 -25 9 7 -29 33 -42 28 -8 -3 -18 -1 -22 5 -3 6 -15 11 -25 11 -16 0 -19 7
-18 35 1 27 6 35 20 35 10 0 18 4 18 10 0 5 -7 7 -15 4 -12 -5 -15 5 -15 54 0
54 -2 60 -19 55 -10 -3 -22 0 -25 6 -8 13 -36 3 -36 -13 0 -17 -47 -18 -53 -2
-4 9 -14 12 -26 9 -12 -3 -21 -1 -21 3 0 5 -16 9 -37 9 -20 0 -38 5 -40 12 -3
9 10 12 44 11 80 -1 100 1 84 11 -7 5 -10 14 -7 20 8 13 33 15 38 2 2 -4 24
-10 49 -13 42 -5 46 -3 42 13 -6 23 28 27 46 5 7 -8 21 -12 31 -9 12 3 22 -1
26 -10 3 -9 14 -14 25 -12 10 2 19 0 19 -6 0 -5 3 -8 8 -7 4 1 17 -3 28 -10
12 -6 24 -8 28 -5 3 3 6 -1 6 -11 0 -9 -4 -15 -9 -11 -5 3 -13 0 -17 -6 -8
-14 14 -29 44 -29 13 0 21 -4 18 -9 -3 -5 3 -11 13 -14 18 -4 18 -3 4 39 -10
30 -19 41 -29 37 -15 -6 -16 17 -1 28 5 3 1 13 -8 23 -10 9 -14 24 -10 35 4
14 0 21 -15 26 -12 4 -20 15 -20 29 0 21 -28 84 -48 109 -6 7 -11 17 -11 22 0
6 -8 18 -16 28 -8 9 -15 24 -15 32 0 8 -5 15 -10 15 -6 0 -9 3 -8 8 5 16 -24
52 -42 52 -21 0 -28 30 -7 30 6 1 -1 12 -18 25 -25 21 -28 27 -15 35 9 6 10
10 3 10 -7 0 -20 17 -30 38 -9 20 -20 39 -23 42 -3 3 -14 22 -23 43 -10 20
-22 37 -27 37 -5 0 -10 10 -12 22 -2 14 -12 24 -27 28 -14 3 -27 12 -29 19 -3
10 0 12 12 8 22 -9 20 6 -6 56 -12 23 -23 55 -25 71 -2 16 -8 34 -13 41 -5 6
-11 20 -13 31 -2 10 -7 26 -10 34 -5 15 -6 23 -10 80 -1 17 -4 30 -7 30 -3 0
-6 80 -7 178 -1 98 -5 186 -9 196 -4 10 -2 21 5 25 6 4 9 14 6 23 -3 8 -2 33
3 56 8 32 7 42 -5 46 -7 3 -16 -1 -19 -9 -4 -8 -13 -15 -20 -15 -8 0 -17 -7
-20 -15 -4 -8 -15 -15 -26 -15 -10 0 -17 -4 -14 -9 3 -4 -4 -17 -15 -27 -11
-10 -27 -28 -37 -38 -9 -11 -31 -35 -49 -54 -18 -19 -30 -38 -28 -42 2 -3 -7
-19 -20 -34 -13 -15 -21 -34 -18 -42 3 -8 1 -14 -5 -14 -9 0 -27 -56 -23 -74
1 -5 -3 -12 -8 -16 -13 -7 -31 -98 -24 -117 3 -7 0 -13 -7 -13 -9 0 -7 -7 4
-25 20 -30 21 -65 2 -65 -34 0 -23 -20 16 -32 61 -19 61 -40 1 -37 -49 3 -123
33 -123 51 0 6 -17 26 -37 44 -20 19 -34 34 -30 34 4 0 -9 16 -28 36 -20 20
-34 38 -31 41 3 3 -3 18 -13 32 -20 29 -35 62 -33 73 1 4 -8 10 -20 14 -42 13
-66 54 -32 54 12 0 15 6 10 23 -30 98 -46 173 -49 214 0 7 -6 14 -14 17 -17 7
-17 26 0 26 9 0 12 11 9 33 -4 33 -6 34 -65 45 -65 12 -77 22 -77 65 0 22 4
27 25 27 16 0 25 -6 25 -15 0 -9 12 -18 30 -22 17 -3 33 -10 36 -14 16 -26 22
20 15 103 -1 3 -10 4 -21 1 -24 -6 -53 15 -46 34 3 7 1 13 -4 13 -6 0 -10 7
-10 16 0 11 6 15 19 11 23 -6 38 21 16 29 -17 7 -21 54 -4 54 6 0 3 7 -5 16
-9 8 -16 25 -16 36 0 17 4 19 28 13 15 -3 29 -11 30 -16 2 -5 8 -7 13 -3 5 3
9 1 9 -5 0 -6 7 -8 16 -4 13 5 12 10 -10 30 -14 13 -26 28 -26 34 0 6 -4 8 -9
4 -5 -3 -15 1 -23 8 -7 8 -18 12 -25 10 -16 -6 -28 18 -13 27 8 5 0 12 -24 20
-20 6 -36 16 -36 22 0 6 -9 19 -21 29 -11 10 -18 23 -14 28 11 18 1 12 -22
-14z"/>
<path d="M5095 8520 c3 -5 8 -10 11 -10 2 0 4 5 4 10 0 6 -5 10 -11 10 -5 0
-7 -4 -4 -10z"/>
<path d="M5057 8413 c18 -28 22 -29 18 -5 -2 9 -4 20 -4 23 -1 3 -7 6 -15 6
-12 0 -12 -4 1 -24z"/>
<path d="M4783 7925 c0 -16 30 -26 47 -15 8 5 2 11 -17 18 -23 8 -30 7 -30 -3z"/>
<path d="M4870 7886 c0 -9 5 -16 10 -16 6 0 10 4 10 9 0 6 -4 13 -10 16 -5 3
-10 -1 -10 -9z"/>
<path d="M4761 7772 c13 -10 32 -21 41 -25 27 -10 11 18 -18 32 -38 17 -50 13
-23 -7z"/>
<path d="M4125 7680 c-3 -5 1 -10 9 -10 9 0 16 5 16 10 0 6 -4 10 -9 10 -6 0
-13 -4 -16 -10z"/>
<path d="M4658 7554 c-10 -15 19 -47 37 -40 13 5 14 8 3 20 -7 8 -16 12 -20
10 -3 -2 -8 1 -10 8 -3 7 -7 8 -10 2z"/>
<path d="M5304 6764 c18 -18 21 -34 6 -34 -5 0 -10 -4 -10 -10 0 -5 7 -10 15
-10 8 0 15 7 15 15 0 8 5 15 10 15 6 0 10 6 10 14 0 14 -21 26 -47 26 -12 0
-12 -2 1 -16z"/>
<path d="M4511 6734 c0 -11 3 -14 6 -6 3 7 2 16 -1 19 -3 4 -6 -2 -5 -13z"/>
<path d="M5330 6705 c-10 -12 -10 -15 4 -15 9 0 16 7 16 15 0 8 -2 15 -4 15
-2 0 -9 -7 -16 -15z"/>
<path d="M5447 6621 c4 -16 0 -19 -19 -17 -13 2 -33 8 -46 15 -29 16 -28 6 3
-23 26 -24 31 -68 12 -93 -9 -12 2 -18 26 -14 4 0 7 -6 7 -14 0 -10 -9 -14
-31 -11 -24 3 -32 -1 -39 -18 -11 -30 -14 -77 -7 -96 4 -8 5 -23 4 -34 -1 -11
7 -22 21 -27 20 -8 22 -6 16 15 -5 19 -1 25 23 31 27 7 28 7 6 16 -33 12 -31
43 2 37 19 -4 25 -1 25 13 0 11 3 19 8 19 6 0 13 48 15 113 1 15 5 27 10 27 4
0 7 17 5 38 -3 29 -9 38 -25 40 -17 3 -20 -1 -16 -17z"/>
<path d="M5336 6525 c4 -8 12 -15 20 -15 8 0 11 6 8 15 -4 8 -12 15 -20 15 -8
0 -11 -6 -8 -15z"/>
<path d="M4807 6485 c3 -8 9 -12 14 -9 12 7 11 11 -5 17 -10 4 -13 1 -9 -8z"/>
<path d="M4766 6387 c3 -8 11 -14 19 -14 8 0 15 6 15 14 0 7 -9 13 -20 13 -12
0 -17 -5 -14 -13z"/>
<path d="M4110 6369 c0 -5 5 -7 10 -4 6 3 10 8 10 11 0 2 -4 4 -10 4 -5 0 -10
-5 -10 -11z"/>
<path d="M4150 6369 c0 -5 5 -7 10 -4 6 3 10 8 10 11 0 2 -4 4 -10 4 -5 0 -10
-5 -10 -11z"/>
<path d="M4155 6307 c2 -34 18 -57 33 -48 11 7 10 11 -2 24 -9 8 -16 23 -16
31 0 9 -4 16 -8 16 -4 0 -7 -10 -7 -23z"/>
<path d="M6025 6291 c0 -21 3 -37 7 -35 5 3 8 12 8 20 0 8 10 15 23 15 20 1
20 2 2 6 -11 3 -24 12 -30 20 -8 10 -10 4 -10 -26z"/>
<path d="M6104 6268 c3 -17 8 -33 10 -36 4 -3 29 -9 49 -11 11 -1 8 -31 -3
-31 -24 0 -7 -18 21 -22 27 -4 30 -2 25 16 -3 12 -6 26 -6 32 0 6 -14 14 -31
18 -25 5 -30 10 -26 26 3 13 -1 24 -13 30 -29 16 -33 12 -26 -22z"/>
<path d="M5056 6247 c-42 -24 -126 -98 -126 -112 0 -5 -8 -18 -18 -29 -20 -22
-72 -146 -72 -171 0 -8 -3 -15 -7 -15 -14 0 -21 -199 -10 -267 10 -63 -41 -31
-91 56 -13 23 -16 33 -28 96 -7 43 -16 47 -41 19 -12 -13 -19 -24 -16 -24 3 0
-1 -8 -9 -17 -43 -52 -81 -146 -94 -233 -8 -49 -10 -62 -17 -90 -10 -41 -14
-120 -6 -120 4 0 11 -26 14 -57 8 -72 35 -173 46 -173 4 0 10 -13 14 -29 7
-31 24 -56 72 -106 17 -18 29 -36 25 -39 -3 -4 4 -9 16 -13 12 -3 22 -9 22
-13 0 -6 103 -62 125 -67 5 -1 24 -6 40 -10 49 -13 200 -10 218 5 9 8 25 10
41 6 15 -3 26 -2 26 4 0 5 12 10 27 10 15 0 29 5 31 11 2 6 8 9 13 5 5 -3 9 0
9 5 0 6 7 11 15 11 8 0 28 13 45 30 16 16 30 27 30 25 0 -3 8 3 19 14 25 25
81 128 81 150 0 9 5 22 10 27 14 14 14 143 0 179 -6 17 -11 30 -10 30 1 0 -4
14 -10 30 -6 17 -11 32 -11 35 0 3 -8 13 -16 23 -9 9 -12 17 -8 17 4 0 0 9
-10 20 -10 11 -14 20 -9 20 5 0 4 4 -3 8 -6 4 -13 14 -15 22 -2 8 -11 23 -21
35 -18 19 -32 46 -37 70 -1 6 -5 15 -10 20 -21 26 -37 117 -36 203 1 50 0 92
-1 92 -2 0 -19 -15 -38 -34 -46 -45 -71 -103 -77 -178 -1 -16 -7 -28 -14 -28
-15 0 -62 47 -69 71 -4 10 -11 19 -16 19 -6 0 -7 5 -4 10 3 6 2 10 -3 10 -16
0 -24 60 -24 175 0 119 9 185 24 185 5 0 6 5 3 10 -3 6 -1 10 4 10 6 0 11 6
11 14 0 7 11 25 25 40 29 31 23 32 -29 3z"/>
<path d="M5345 6250 c-3 -6 1 -7 9 -4 18 7 21 14 7 14 -6 0 -13 -4 -16 -10z"/>
<path d="M6274 6236 c1 -8 5 -18 8 -22 4 -3 5 1 4 10 -1 8 -5 18 -8 22 -4 3
-5 -1 -4 -10z"/>
<path d="M6275 6151 c-3 -6 4 -15 15 -21 20 -11 21 -10 10 9 -12 23 -16 25
-25 12z"/>
<path d="M6140 6132 c0 -5 9 -8 20 -5 11 3 20 1 20 -5 0 -5 8 -12 18 -15 9 -2
25 -8 34 -12 13 -5 17 -2 15 14 -1 12 -8 21 -17 21 -8 0 -32 3 -52 6 -24 4
-38 3 -38 -4z"/>
<path d="M4131 6083 c6 -7 15 -13 20 -13 5 0 6 6 3 13 -3 8 -11 14 -19 14 -11
0 -12 -4 -4 -14z"/>
<path d="M5797 6086 c-5 -13 1 -16 29 -16 22 0 33 4 29 11 -4 6 -14 8 -23 4
-8 -3 -19 -1 -22 5 -5 8 -9 6 -13 -4z"/>
<path d="M5880 6061 c0 -17 -6 -21 -30 -21 -16 0 -30 -4 -30 -9 0 -7 35 -14
132 -25 4 -1 17 -9 28 -19 12 -10 26 -15 32 -11 5 4 14 0 19 -7 4 -7 11 -10
16 -6 7 8 -8 22 -32 30 -6 2 -5 14 2 30 l13 27 -50 0 c-29 0 -50 5 -50 11 0 5
-5 7 -10 4 -6 -4 -17 -1 -25 5 -12 10 -15 9 -15 -9z"/>
<path d="M6080 6049 c0 -5 5 -7 10 -4 6 3 10 8 10 11 0 2 -4 4 -10 4 -5 0 -10
-5 -10 -11z"/>
<path d="M6260 6047 c0 -5 9 -11 20 -14 22 -6 26 -18 10 -28 -16 -10 -12 -22
9 -28 27 -7 29 -3 22 40 -5 31 -10 36 -34 37 -15 1 -27 -2 -27 -7z"/>
<path d="M4114 6039 c-9 -14 15 -29 34 -21 9 3 13 1 9 -5 -3 -5 0 -10 7 -10
21 0 8 23 -19 35 -17 8 -26 8 -31 1z"/>
<path d="M6125 6040 c-3 -5 -1 -10 4 -10 6 0 11 5 11 10 0 6 -2 10 -4 10 -3 0
-8 -4 -11 -10z"/>
<path d="M4314 6026 c-8 -22 -2 -27 16 -16 12 7 12 12 3 21 -10 10 -14 9 -19
-5z"/>
<path d="M6170 6026 c0 -9 7 -16 16 -16 17 0 14 22 -4 28 -7 2 -12 -3 -12 -12z"/>
<path d="M5820 5981 c0 -14 13 -20 51 -25 19 -3 42 -8 52 -11 12 -5 16 -3 12
6 -3 8 -22 15 -42 16 -20 1 -39 6 -42 10 -9 12 -31 14 -31 4z"/>
<path d="M6152 5968 c-2 -10 -12 -18 -21 -17 -37 3 -44 -3 -16 -16 40 -19 65
-18 65 0 0 8 6 15 14 15 7 0 19 6 25 14 9 11 5 15 -25 18 -30 3 -38 1 -42 -14z"/>
<path d="M4145 5960 c-3 -5 1 -10 9 -10 9 0 16 -4 16 -9 0 -5 10 -11 23 -13
15 -2 22 -10 21 -25 0 -15 7 -23 23 -26 24 -4 31 7 13 18 -6 4 -8 15 -5 25 6
20 -24 36 -57 31 -10 -1 -18 3 -18 8 0 14 -17 14 -25 1z"/>
<path d="M6060 5958 c0 -4 4 -8 9 -8 6 0 12 4 15 8 3 5 -1 9 -9 9 -8 0 -15 -4
-15 -9z"/>
<path d="M4075 5930 c3 -5 8 -10 11 -10 2 0 4 5 4 10 0 6 -5 10 -11 10 -5 0
-7 -4 -4 -10z"/>
<path d="M5856 5922 c-6 -5 24 -31 37 -32 4 0 7 6 7 14 0 14 -34 28 -44 18z"/>
<path d="M5950 5891 c0 -5 9 -11 20 -14 24 -6 27 8 4 17 -21 8 -24 8 -24 -3z"/>
<path d="M6030 5880 c0 -5 7 -10 15 -10 8 0 15 5 15 10 0 6 -7 10 -15 10 -8 0
-15 -4 -15 -10z"/>
<path d="M4010 5856 c0 -8 -6 -17 -12 -20 -7 -4 -2 -4 12 -1 14 2 36 5 50 5
l25 0 -29 15 c-35 19 -46 19 -46 1z"/>
<path d="M6090 5857 c0 -6 2 -8 6 -5 3 3 24 0 47 -7 36 -11 44 -10 56 3 13 13
12 14 -11 9 -14 -4 -28 -4 -31 0 -11 11 -67 11 -67 0z"/>
<path d="M5836 5842 c-3 -6 -1 -14 5 -17 15 -10 25 3 12 16 -7 7 -13 7 -17 1z"/>
<path d="M5900 5836 c0 -10 -6 -13 -15 -10 -8 4 -15 1 -15 -5 0 -6 7 -11 15
-11 9 0 16 -10 17 -25 0 -14 1 -31 2 -37 1 -7 -7 -12 -16 -12 -11 1 -14 -4
-11 -14 5 -12 1 -14 -20 -8 -24 6 -27 4 -24 -16 3 -29 39 -67 69 -72 13 -3 25
-5 28 -6 3 -2 8 -2 13 -1 4 0 7 -3 7 -9 0 -5 7 -10 15 -10 9 0 15 -9 15 -25 0
-25 0 -25 103 -39 27 -3 37 -1 34 7 -2 7 -22 13 -45 15 -30 2 -42 8 -42 19 0
9 6 13 15 10 8 -4 17 -1 21 5 4 6 3 9 -2 6 -13 -8 -54 9 -54 22 0 6 5 8 10 5
7 -4 9 2 4 19 -5 21 -3 26 12 26 42 0 66 -13 61 -31 -4 -14 3 -19 34 -24 21
-4 41 -11 45 -16 3 -5 10 -7 15 -4 5 4 9 -1 9 -10 0 -9 -4 -14 -9 -11 -5 4 -7
-3 -4 -14 4 -16 0 -20 -17 -20 -19 0 -20 -2 -10 -15 18 -22 40 -18 40 6 0 15
5 19 22 17 18 -2 22 2 22 27 0 26 -4 30 -29 33 -17 2 -34 8 -39 13 -6 5 -20 9
-33 9 -14 0 -23 6 -23 15 0 8 5 15 10 15 6 0 10 5 10 10 0 6 -9 10 -20 10 -11
0 -20 7 -20 15 0 8 5 15 12 15 17 0 3 11 -19 14 -26 4 -30 36 -4 36 14 0 19 5
15 15 -4 9 -19 15 -38 15 -46 0 -76 11 -76 26 0 8 5 14 12 14 30 0 -5 11 -51
16 -42 4 -51 3 -51 -10z"/>
<path d="M6269 5828 c-11 -7 -11 -11 -1 -15 27 -11 12 -33 -23 -33 -19 0 -35
-2 -35 -5 0 -15 26 -31 42 -27 10 2 18 -1 18 -7 0 -5 6 -8 14 -5 10 4 13 16 9
41 -4 22 -2 38 6 43 10 5 9 9 -2 13 -7 3 -20 1 -28 -5z"/>
<path d="M4128 5818 c9 -9 15 -9 24 0 9 9 7 12 -12 12 -19 0 -21 -3 -12 -12z"/>
<path d="M3064 5802 c-11 -8 -13 -23 -19 -132 -2 -47 -6 -96 -8 -110 -3 -14
-5 -30 -6 -36 -1 -11 -29 -25 -56 -28 -5 -1 -17 -6 -25 -11 -8 -5 -21 -10 -29
-11 -14 -3 -61 -41 -74 -61 -4 -7 -15 -20 -25 -29 -9 -10 -18 -21 -18 -26 -1
-4 -2 -9 -4 -10 -2 -4 -6 -28 -16 -96 -8 -59 -8 -59 -54 -67 -18 -3 -45 -12
-61 -21 -16 -8 -31 -14 -34 -14 -3 0 -26 -11 -53 -25 -26 -14 -52 -25 -59 -25
-6 0 -13 -3 -15 -7 -3 -9 -68 -51 -109 -72 -14 -7 -39 -24 -54 -37 -15 -13
-31 -24 -35 -24 -4 0 -19 -12 -34 -26 -14 -15 -26 -23 -26 -18 0 5 -4 4 -8 -2
-4 -5 -25 -23 -47 -40 -21 -16 -61 -50 -87 -76 -27 -27 -51 -48 -54 -48 -7 0
-84 -82 -84 -91 0 -3 14 -17 31 -30 17 -13 43 -36 59 -51 16 -16 31 -28 35
-28 3 0 17 -10 30 -22 29 -28 40 -37 85 -68 19 -14 42 -32 52 -40 9 -8 23 -19
30 -25 7 -5 29 -23 49 -40 66 -55 77 -63 101 -76 13 -7 39 -25 58 -40 19 -15
55 -38 80 -50 25 -12 55 -32 68 -43 13 -12 25 -20 28 -19 13 5 43 -11 37 -21
-3 -6 -2 -8 2 -3 5 4 19 0 32 -8 13 -9 23 -12 23 -8 0 5 4 3 8 -3 7 -12 74
-44 101 -50 8 -1 18 -9 22 -16 5 -7 9 -9 9 -5 0 5 10 1 22 -7 12 -9 30 -16 39
-16 9 0 20 -7 23 -16 3 -8 10 -13 15 -9 5 3 12 1 16 -4 7 -13 88 -25 112 -17
10 3 19 16 20 28 1 11 8 25 15 29 7 5 10 9 5 9 -4 0 -1 14 8 30 9 17 13 30 9
30 -4 0 -2 6 4 13 6 6 15 37 21 67 6 30 13 64 15 75 41 191 48 254 49 433 0
83 4 152 8 152 4 0 39 -30 77 -67 83 -80 103 -96 159 -129 22 -14 44 -32 47
-40 3 -8 10 -12 16 -9 5 3 10 1 10 -4 0 -6 6 -11 13 -11 7 0 18 -9 25 -20 7
-11 18 -20 25 -20 6 0 29 -15 49 -33 58 -51 81 -67 95 -67 7 0 13 -3 13 -7 0
-5 21 -21 45 -38 25 -16 45 -34 45 -38 0 -5 4 -6 9 -3 5 3 23 -8 41 -24 18
-17 36 -30 40 -30 4 0 11 -7 14 -16 3 -8 10 -12 16 -9 5 3 10 1 10 -6 0 -7 3
-10 6 -6 3 3 11 1 18 -4 52 -44 73 -59 95 -71 14 -7 34 -20 44 -29 9 -9 30
-22 45 -29 15 -8 39 -25 54 -38 14 -13 30 -24 35 -25 13 -1 95 -50 115 -69 10
-10 18 -15 18 -10 0 4 7 -1 14 -11 8 -10 17 -18 20 -18 8 2 56 -29 74 -46 6
-6 21 -15 32 -18 11 -3 20 -11 20 -16 0 -6 4 -8 8 -5 5 3 18 -3 29 -14 12 -10
23 -16 27 -13 3 3 8 -2 12 -11 3 -9 11 -13 17 -9 7 4 8 0 4 -11 -4 -10 -7 -20
-7 -22 0 -3 -4 -2 -10 1 -5 3 -10 1 -10 -5 0 -6 -4 -8 -10 -5 -5 3 -10 1 -10
-6 0 -7 -3 -9 -6 -6 -4 3 -18 -3 -32 -13 -13 -11 -31 -20 -38 -20 -8 0 -14 -4
-14 -10 0 -5 -8 -10 -19 -10 -10 0 -24 -7 -31 -15 -7 -8 -16 -15 -20 -15 -4 0
-34 -12 -66 -27 -33 -14 -62 -26 -66 -25 -5 1 -8 -2 -8 -7 0 -5 -16 -15 -35
-22 -19 -7 -35 -17 -35 -21 0 -4 -3 -7 -7 -6 -5 1 -27 -8 -49 -20 -23 -11 -44
-18 -48 -15 -3 3 -8 -2 -12 -11 -3 -9 -10 -13 -15 -10 -5 3 -9 0 -9 -6 0 -6
-4 -9 -9 -6 -5 4 -11 2 -13 -2 -5 -13 -143 -86 -152 -80 -2 2 -13 -6 -25 -16
-12 -11 -21 -15 -21 -10 0 5 -5 1 -11 -9 -6 -9 -14 -15 -20 -12 -5 4 -9 1 -9
-4 0 -6 -3 -10 -7 -10 -5 1 -11 0 -15 -1 -5 -1 -11 -3 -15 -4 -22 -6 -63 -30
-63 -38 0 -4 -9 -8 -19 -8 -11 0 -23 -5 -26 -10 -4 -6 -11 -8 -16 -5 -5 4 -9
1 -9 -6 0 -7 -3 -9 -6 -6 -4 4 -19 -2 -33 -12 -22 -15 -50 -29 -71 -36 -24 -7
-60 -30 -60 -37 0 -5 -4 -6 -10 -3 -5 3 -10 1 -10 -5 0 -6 -4 -8 -10 -5 -5 3
-10 1 -10 -4 0 -6 -24 -23 -52 -37 -29 -15 -66 -37 -83 -49 -16 -12 -59 -38
-95 -56 -36 -19 -67 -36 -70 -40 -9 -9 -85 -43 -92 -41 -5 1 -8 -3 -8 -9 0 -5
-5 -7 -10 -4 -6 3 -13 -1 -16 -9 -3 -9 -10 -13 -15 -10 -5 3 -9 1 -9 -5 0 -5
-8 -12 -18 -15 -9 -3 -33 -20 -52 -36 -53 -46 -58 -50 -70 -50 -5 0 -10 -4
-10 -9 0 -5 -13 -14 -30 -21 -16 -7 -30 -16 -30 -20 0 -3 -12 -13 -27 -21 -15
-8 -35 -21 -44 -29 -9 -8 -29 -24 -44 -35 -16 -11 -41 -33 -57 -48 -15 -16
-28 -27 -28 -24 0 5 -77 -63 -146 -130 -30 -29 -58 -53 -64 -53 -5 0 -10 -4
-10 -10 0 -13 -139 -148 -145 -142 -3 3 -5 -3 -5 -13 0 -10 -3 -16 -6 -13 -3
4 -14 -1 -24 -10 -47 -44 -92 -77 -101 -75 -5 2 -9 -1 -9 -6 0 -4 -19 -21 -42
-37 -24 -16 -45 -32 -48 -35 -3 -3 -17 -9 -33 -13 -15 -3 -37 -16 -49 -28
l-21 -21 39 -37 c22 -21 41 -38 44 -37 3 0 27 -9 53 -21 27 -12 54 -22 61 -22
7 0 16 -3 20 -7 3 -4 12 -8 19 -9 7 -2 23 -6 37 -9 23 -6 73 -18 127 -30 12
-3 35 -10 50 -17 53 -21 85 -17 120 16 28 26 34 40 39 91 4 33 11 63 16 66 5
3 9 9 9 13 -1 3 -1 7 0 9 0 1 3 13 5 27 3 14 9 27 14 28 6 2 10 8 10 12 0 15
71 132 109 181 20 26 43 56 51 68 8 11 19 21 25 21 5 0 28 18 49 41 25 25 46
39 57 36 12 -3 15 0 12 13 -3 12 5 24 26 36 17 10 31 21 31 24 0 4 27 24 60
46 33 21 60 43 60 47 0 4 14 13 30 18 17 6 30 15 30 20 0 5 7 9 15 9 8 0 15 5
15 10 0 6 5 10 11 10 6 0 25 11 42 24 18 13 42 27 55 31 12 3 22 10 22 15 0 4
8 10 18 14 9 3 35 17 57 30 22 13 43 22 48 19 4 -2 7 0 7 4 0 5 17 17 38 28
20 11 43 26 50 32 7 7 20 13 28 13 8 0 14 5 14 10 0 6 6 10 14 10 8 0 16 4 18
10 2 5 12 11 23 13 11 1 38 14 60 28 54 35 85 51 85 44 0 -3 17 5 38 18 20 13
53 29 72 37 19 8 49 21 65 31 57 31 110 63 115 69 3 3 14 7 25 8 11 2 28 11
38 19 9 9 17 13 17 9 0 -3 11 1 25 10 14 9 25 12 25 8 0 -5 4 -4 8 2 9 15 72
47 79 40 4 -4 40 16 128 71 11 7 43 25 70 39 28 15 52 30 53 35 2 5 10 9 17 9
8 0 20 8 27 18 13 16 29 24 56 25 6 0 12 3 12 6 0 4 20 17 45 31 25 14 45 28
45 32 0 5 8 8 19 8 10 0 30 11 45 25 15 14 31 23 36 20 4 -3 13 2 20 10 7 8
22 15 33 15 11 0 17 3 14 7 -12 11 37 30 71 27 18 -1 41 -9 50 -17 9 -8 27
-18 40 -21 12 -4 22 -12 22 -17 0 -6 4 -8 9 -4 5 3 15 -1 23 -8 7 -7 28 -20
46 -28 17 -7 32 -17 32 -21 0 -5 7 -8 15 -8 8 0 15 -5 15 -12 0 -6 3 -8 7 -5
3 4 21 -4 38 -18 18 -13 35 -21 39 -18 3 4 6 2 6 -4 0 -6 9 -9 22 -5 11 3 19
1 16 -4 -6 -11 28 -45 36 -37 3 4 6 1 6 -5 0 -7 7 -12 15 -12 8 0 15 -4 15
-10 0 -5 4 -9 8 -7 12 3 82 -36 82 -46 0 -4 5 -5 10 -2 6 3 10 2 10 -3 0 -9
37 -25 53 -23 4 1 7 -4 7 -9 0 -12 49 -34 68 -31 6 1 12 -3 12 -9 0 -6 4 -9 9
-6 5 3 20 -3 33 -14 14 -11 28 -16 32 -13 3 3 6 1 6 -5 0 -7 9 -12 19 -12 11
0 26 -7 34 -15 8 -8 17 -11 21 -8 3 4 6 1 6 -5 0 -7 3 -11 8 -10 11 4 72 -26
72 -35 0 -5 5 -5 10 -2 6 3 10 1 10 -5 0 -6 5 -8 10 -5 6 3 13 -1 16 -9 3 -9
13 -16 20 -16 8 0 26 -8 41 -17 14 -10 35 -19 47 -20 11 -2 23 -7 26 -11 8
-12 60 -43 60 -37 0 4 27 -8 60 -26 33 -17 60 -35 60 -38 0 -4 10 -7 22 -8 11
-1 24 -7 28 -13 4 -7 11 -12 16 -13 17 -2 74 -39 74 -49 0 -5 4 -7 8 -4 5 3
25 -6 45 -19 20 -14 43 -25 51 -25 9 0 16 -4 16 -10 0 -5 4 -10 8 -10 12 0
153 -81 186 -107 16 -13 35 -23 43 -23 8 0 11 -5 8 -10 -3 -5 -1 -11 4 -11 6
-1 15 -2 20 -3 5 0 20 -10 33 -21 56 -48 107 -85 117 -85 6 0 11 -4 11 -8 0
-5 11 -15 25 -22 13 -7 22 -17 19 -22 -3 -4 -1 -8 4 -8 5 0 33 -22 62 -50 29
-27 55 -50 57 -50 7 0 55 -53 73 -80 8 -12 21 -29 28 -36 7 -8 11 -14 7 -14
-3 0 3 -10 15 -22 11 -12 20 -26 20 -31 0 -5 9 -22 21 -38 31 -44 67 -142 74
-204 6 -42 15 -63 39 -88 34 -37 62 -40 131 -16 22 7 45 14 50 15 6 0 17 4 25
7 8 3 33 9 55 13 42 8 50 10 63 14 4 2 12 4 17 5 32 6 149 58 157 70 4 5 8 6
8 1 0 -4 14 6 30 24 27 29 29 35 17 53 -7 11 -31 27 -52 35 -22 9 -41 19 -43
24 -2 4 -8 8 -14 8 -5 0 -15 6 -22 13 -8 6 -24 19 -36 27 -12 8 -30 22 -40 30
-10 8 -28 22 -41 30 -12 8 -59 52 -105 97 -45 45 -84 80 -86 77 -3 -2 -10 6
-17 19 -7 12 -27 33 -46 47 -18 14 -31 28 -28 33 2 4 -2 7 -10 7 -7 0 -19 12
-26 26 -6 15 -14 24 -17 21 -5 -5 -18 4 -68 48 -95 83 -129 111 -188 154 -36
27 -69 47 -72 44 -3 -3 -8 2 -12 11 -3 9 -10 13 -15 10 -5 -3 -9 0 -9 6 0 6
-12 16 -27 23 -15 6 -39 23 -53 35 -38 36 -109 82 -126 82 -7 0 -14 5 -14 11
0 5 -4 8 -9 5 -5 -3 -14 1 -21 9 -7 8 -16 12 -21 9 -5 -3 -9 -1 -9 4 0 5 -20
17 -45 28 -25 10 -45 22 -45 28 0 5 -3 7 -6 4 -4 -5 -84 41 -119 69 -6 4 -30
19 -55 32 -25 13 -63 37 -86 52 -22 15 -52 31 -66 34 -15 4 -35 15 -47 26 -12
11 -21 16 -21 12 0 -4 -5 -2 -12 5 -7 7 -18 12 -25 12 -6 0 -34 13 -61 29 -27
16 -60 32 -73 36 -13 4 -44 19 -69 34 -25 14 -47 26 -50 26 -14 1 -87 41 -104
57 -10 9 -23 15 -28 12 -4 -3 -8 0 -8 7 0 7 -3 9 -7 6 -3 -4 -21 5 -40 19 -18
14 -33 23 -33 20 0 -4 -57 24 -200 99 -25 13 -62 27 -68 25 -1 0 -10 6 -18 15
-9 8 -22 15 -30 15 -8 0 -14 5 -14 11 0 5 -3 8 -8 5 -4 -2 -27 9 -50 25 -24
16 -41 25 -37 19 3 -6 -14 2 -40 17 -25 16 -44 34 -43 41 2 7 6 13 11 12 4 0
19 11 33 25 14 14 30 23 35 20 5 -4 12 1 15 9 3 9 13 16 22 16 8 0 22 7 31 15
23 22 90 65 101 65 6 0 10 4 10 8 0 5 24 22 53 37 28 16 54 31 57 34 10 13 90
61 100 61 5 0 10 4 10 8 0 4 23 21 50 37 28 16 50 33 50 37 0 4 5 8 11 8 6 0
17 6 24 13 25 22 40 32 68 46 15 8 27 18 27 23 0 4 6 8 13 8 6 0 23 12 36 25
13 14 34 28 46 31 13 3 26 12 29 20 3 8 12 14 21 14 8 0 15 3 15 8 0 4 17 18
38 32 20 14 48 35 62 48 14 12 29 22 34 22 5 0 17 9 27 21 9 11 21 21 26 21 4
0 24 13 43 29 19 16 38 29 43 29 4 0 21 13 39 30 17 16 37 30 44 30 7 0 14 4
16 8 2 5 27 27 56 50 30 23 51 42 47 42 -6 0 22 28 69 68 29 23 36 14 31 -40
-8 -82 -4 -237 9 -338 4 -30 10 -73 12 -95 3 -21 10 -47 14 -56 5 -9 11 -32
13 -50 2 -19 7 -40 11 -48 4 -7 5 -15 2 -18 -3 -3 -1 -12 4 -19 6 -6 10 -16 8
-20 -3 -11 20 -80 35 -109 6 -11 12 -27 13 -35 2 -8 10 -20 19 -26 25 -19 90
4 270 92 88 43 163 77 168 76 4 -1 7 3 7 8 0 6 6 10 14 10 7 0 19 7 26 15 7 9
15 13 17 11 3 -3 14 4 26 15 11 10 28 19 38 19 9 0 20 7 23 16 3 8 10 13 15
10 4 -3 21 8 37 24 16 16 34 30 39 30 6 0 26 14 45 30 19 16 40 30 47 30 6 0
15 9 18 20 4 11 11 18 16 15 5 -4 9 -1 9 6 0 7 3 10 6 6 4 -3 12 -1 19 6 7 7
31 28 54 47 24 19 53 44 66 55 14 11 43 33 65 49 22 17 40 33 40 38 0 4 5 8
10 8 6 0 24 14 42 30 17 17 34 30 38 30 21 0 -3 44 -47 86 -102 99 -141 134
-148 134 -3 0 -16 11 -29 25 -13 14 -28 25 -34 25 -6 0 -23 11 -37 25 -14 14
-25 23 -25 21 0 -6 -30 17 -61 46 -9 9 -20 14 -23 10 -3 -3 -6 0 -6 7 0 7 -4
9 -10 6 -6 -3 -10 -1 -10 6 0 7 -3 10 -6 6 -3 -3 -13 1 -22 9 -10 8 -20 13
-24 12 -3 -2 -17 7 -30 18 -13 12 -66 41 -118 64 -96 42 -112 48 -141 49 -11
1 -19 14 -23 41 -19 120 -27 141 -76 191 -26 27 -53 50 -59 50 -36 4 -121 47
-121 61 -2 80 -21 253 -30 263 -10 12 -15 11 -33 -5 -11 -11 -24 -20 -28 -20
-4 0 -14 -6 -22 -14 -8 -8 -43 -33 -78 -55 -35 -22 -69 -45 -76 -51 -7 -5 -17
-10 -23 -10 -5 0 -10 -3 -10 -8 0 -4 -13 -13 -29 -20 -16 -7 -38 -20 -49 -30
-11 -9 -30 -24 -42 -32 -12 -8 -28 -19 -34 -25 -6 -5 -23 -16 -38 -24 -15 -8
-37 -22 -47 -33 -11 -10 -25 -18 -31 -18 -5 0 -10 -4 -10 -8 0 -4 -15 -16 -32
-27 -18 -10 -36 -23 -39 -28 -8 -11 34 -57 51 -57 12 0 98 -43 152 -77 27 -17
36 -28 31 -40 -6 -19 -48 -63 -59 -63 -15 0 -93 -66 -94 -78 0 -7 -7 -15 -15
-18 -8 -4 -15 -10 -15 -15 0 -9 -19 -34 -60 -80 -41 -45 -64 -74 -62 -76 5 -7
-121 -137 -189 -195 -24 -20 -54 -46 -67 -56 -13 -11 -42 -35 -64 -54 -23 -18
-51 -42 -62 -53 -12 -11 -37 -31 -56 -45 -19 -13 -38 -29 -42 -35 -4 -5 -8 -6
-8 -2 0 4 -10 -2 -22 -13 -12 -11 -47 -37 -78 -58 -30 -20 -56 -40 -58 -44 -2
-5 -10 -8 -18 -8 -8 0 -14 -4 -14 -9 0 -5 -19 -20 -42 -34 -24 -14 -52 -34
-64 -44 -27 -24 -55 -42 -76 -49 -10 -4 -18 -11 -18 -16 0 -5 -4 -6 -10 -3 -5
3 -10 1 -10 -4 0 -6 -7 -11 -16 -11 -8 0 -12 -4 -9 -10 3 -5 0 -10 -7 -10 -8
0 -21 -9 -31 -20 -9 -11 -23 -20 -31 -20 -7 0 -19 -7 -26 -15 -7 -8 -16 -12
-21 -9 -5 3 -9 1 -9 -4 0 -5 -12 -15 -27 -22 -16 -8 -36 -21 -46 -29 -9 -8
-17 -10 -17 -5 0 5 -4 5 -8 -1 -13 -18 -71 -55 -86 -55 -8 0 -20 8 -25 18 -6
9 -11 13 -11 8 0 -5 -10 0 -23 12 -12 11 -40 28 -62 38 -22 9 -45 23 -52 33
-7 9 -13 13 -13 9 0 -4 -8 -1 -17 7 -10 8 -22 15 -26 14 -5 0 -17 10 -28 22
-10 12 -19 18 -19 13 0 -5 -4 -4 -8 1 -10 15 -131 95 -142 95 -6 0 -10 4 -10
10 0 5 -14 17 -32 26 -18 9 -37 22 -44 28 -6 6 -22 18 -34 26 -12 8 -28 21
-36 28 -7 6 -17 12 -22 12 -5 0 -17 9 -27 20 -10 11 -22 20 -27 20 -4 0 -17 8
-27 18 -25 22 -37 31 -91 67 -41 28 -65 48 -147 126 -18 17 -33 28 -33 24 0
-3 -11 5 -24 19 -13 15 -28 26 -35 26 -6 0 -11 7 -11 15 0 8 -6 15 -14 15 -8
0 -16 7 -20 15 -3 8 -13 15 -21 15 -9 0 -13 5 -10 10 3 6 1 10 -5 10 -7 0 -27
16 -46 35 -18 19 -31 35 -27 35 3 0 -6 11 -21 25 -15 14 -25 25 -22 25 7 0 -9
19 -60 74 -19 20 -34 41 -34 46 0 6 -4 10 -10 10 -5 0 -10 6 -10 13 0 7 -9 19
-20 27 -11 8 -20 19 -20 26 0 6 -14 22 -32 35 -17 13 -40 33 -50 43 -10 11
-18 16 -18 12 0 -4 -13 2 -30 14 -33 23 -42 70 -14 70 8 0 12 5 9 10 -5 9 -1
11 20 10 3 -1 13 6 21 15 9 8 19 13 24 10 5 -3 10 -2 12 2 4 11 67 43 82 43 7
0 23 11 36 25 l24 25 -23 18 c-13 9 -36 28 -52 40 -16 13 -29 21 -29 18 0 -6
-28 15 -55 42 -8 6 -19 12 -26 12 -6 0 -19 8 -28 18 -20 22 -109 82 -122 82
-5 0 -9 5 -9 10 0 6 -6 10 -13 10 -8 0 -22 9 -32 20 -10 11 -23 20 -30 20 -6
0 -21 9 -33 20 -12 12 -22 17 -22 13 0 -4 -4 -3 -8 2 -4 6 -31 26 -60 44 -30
19 -59 40 -66 47 -7 7 -17 9 -22 6z"/>
<path d="M4070 5747 c0 -19 16 -30 49 -35 14 -2 33 -8 44 -14 15 -7 22 -7 28
3 6 10 0 17 -24 23 -17 6 -34 13 -37 17 -3 4 -18 11 -33 14 -21 6 -27 4 -27
-8z"/>
<path d="M3924 5719 c-3 -5 6 -9 20 -9 31 0 34 6 6 13 -11 3 -23 1 -26 -4z"/>
<path d="M6180 5722 c0 -6 12 -12 27 -14 18 -2 29 -10 31 -22 3 -15 -1 -18
-22 -14 -35 7 -33 -7 4 -22 34 -14 46 -11 42 8 -2 8 5 20 15 28 17 12 17 13 1
14 -10 0 -18 4 -18 8 0 4 -8 8 -17 9 -10 1 -28 4 -40 8 -14 5 -23 3 -23 -3z"/>
<path d="M3900 5680 c-20 -12 -12 -18 30 -20 54 -3 58 0 21 15 -39 18 -33 17
-51 5z"/>
<path d="M3870 5631 c0 -10 34 -21 65 -21 16 1 17 2 5 9 -25 14 -70 22 -70 12z"/>
<path d="M4055 5630 c-3 -6 1 -13 10 -16 21 -9 26 -2 10 13 -9 8 -16 9 -20 3z"/>
<path d="M4100 5590 c0 -23 -3 -23 -55 -5 -18 6 -18 5 -2 -5 9 -6 17 -18 17
-27 0 -12 -7 -14 -37 -8 -21 4 -42 7 -48 8 -5 1 -13 5 -16 10 -6 9 -46 19 -71
19 -10 -1 -18 2 -18 6 0 4 -9 8 -20 8 -13 0 -16 -4 -10 -10 6 -6 10 -20 10
-33 0 -13 5 -22 12 -20 6 1 16 -11 22 -28 6 -16 13 -32 17 -35 3 -3 14 -21 25
-40 24 -43 40 -61 48 -53 3 4 6 -1 6 -10 0 -9 5 -17 10 -17 6 0 10 -6 10 -14
0 -17 39 -65 40 -48 0 6 9 12 21 12 15 0 19 4 15 16 -3 9 -6 20 -6 25 0 5 -7
9 -15 9 -8 0 -15 9 -15 19 0 16 5 19 25 15 20 -3 25 0 25 16 0 13 7 20 18 20
10 0 19 7 19 15 0 8 -4 12 -9 9 -4 -3 -8 2 -8 12 0 13 6 15 30 11 17 -4 30 -2
30 3 0 6 -4 10 -10 10 -5 0 -10 7 -10 15 0 8 3 15 8 15 10 0 9 62 -1 78 -5 7
-13 10 -18 6 -5 -3 -16 0 -24 6 -12 10 -15 9 -15 -10z"/>
<path d="M5807 5548 c-11 -7 3 -11 71 -22 31 -5 43 6 20 20 -15 9 -77 11 -91
2z"/>
<path d="M5805 5488 c20 -12 34 -17 68 -20 33 -4 18 -28 -18 -28 -19 0 -35 -4
-35 -10 0 -5 15 -10 33 -10 47 0 77 -10 77 -26 0 -8 -6 -14 -14 -14 -9 0 -12
-7 -9 -20 7 -25 -18 -36 -46 -20 -15 7 -21 7 -21 0 0 -6 7 -13 15 -16 8 -4 13
-10 10 -14 -3 -4 7 -11 21 -14 20 -5 25 -12 21 -26 -3 -13 -1 -18 5 -13 6 3
17 -3 25 -13 8 -10 16 -18 19 -16 2 1 18 -5 35 -14 22 -11 35 -12 42 -5 7 7 2
12 -17 17 -14 3 -26 13 -26 21 0 11 9 13 46 7 35 -5 45 -4 39 5 -8 14 25 42
39 34 5 -4 6 0 1 7 -5 8 -1 18 10 27 17 12 17 13 2 14 -17 1 -29 4 -44 9 -5 1
-11 2 -15 1 -5 0 -8 6 -8 14 0 12 10 15 44 12 25 -2 43 0 40 5 -3 4 -12 8 -20
8 -12 0 -14 7 -9 30 4 20 3 30 -5 30 -6 0 -8 4 -5 10 3 5 0 7 -9 4 -8 -3 -24
0 -36 6 -15 8 -20 8 -16 1 4 -6 0 -11 -8 -11 -9 0 -16 7 -16 15 0 10 -10 15
-30 15 -16 0 -30 -5 -30 -10 0 -6 -10 -8 -22 -6 -13 3 -32 7 -43 9 -11 3 -40
8 -65 11 -39 6 -42 5 -25 -6z"/>
<path d="M4146 5390 c2 -33 -1 -40 -17 -40 -27 0 -23 -19 7 -30 14 -6 26 -10
27 -10 1 0 3 27 5 60 1 44 -1 60 -11 60 -9 0 -13 -13 -11 -40z"/>
<path d="M5773 5404 c-3 -8 -3 -17 -1 -20 9 -9 77 -11 90 -2 8 5 3 8 -14 8
-16 0 -28 4 -28 9 0 16 -41 20 -47 5z"/>
<path d="M5763 5353 c-22 -8 -14 -23 11 -21 19 2 22 5 14 15 -6 7 -11 13 -12
12 0 0 -7 -3 -13 -6z"/>
<path d="M5735 5290 c-3 -5 -1 -10 4 -10 6 0 11 -7 11 -16 0 -10 -6 -14 -15
-10 -27 10 -15 -13 15 -29 34 -17 50 -19 50 -5 0 6 -7 10 -15 10 -18 0 -20 21
-3 38 10 10 10 15 -2 22 -20 13 -37 12 -45 0z"/>
<path d="M4192 5221 c-10 -6 -9 -10 7 -14 14 -3 21 0 21 9 0 16 -9 18 -28 5z"/>
<path d="M5692 5202 c-9 -3 -7 -9 8 -19 16 -11 25 -12 33 -4 8 8 8 11 -2 11
-7 0 -10 4 -7 8 6 9 -11 11 -32 4z"/>
<path d="M5887 5179 c-10 -6 -30 -8 -46 -4 -19 4 -32 1 -40 -9 -18 -22 -5 -39
20 -26 11 6 24 8 29 5 5 -3 11 -1 15 5 3 5 15 10 26 10 11 0 18 -4 14 -9 -3
-6 6 -8 21 -5 22 4 25 2 20 -13 -6 -14 -3 -13 13 4 26 28 26 33 1 26 -12 -3
-22 1 -26 11 -7 18 -21 20 -47 5z"/>
<path d="M4143 5165 c0 -8 6 -16 14 -19 11 -4 11 -1 3 14 -13 24 -17 25 -17 5z"/>
<path d="M5656 5154 c-4 -9 -4 -19 -1 -22 2 -3 7 3 11 12 4 9 4 19 1 22 -2 3
-7 -3 -11 -12z"/>
<path d="M4257 5149 c7 -7 15 -10 18 -7 3 3 -2 9 -12 12 -14 6 -15 5 -6 -5z"/>
<path d="M5750 5132 c0 -5 7 -9 15 -9 8 0 15 4 15 9 0 4 -7 8 -15 8 -8 0 -15
-4 -15 -8z"/>
<path d="M4200 5111 c0 -5 5 -13 10 -16 6 -3 10 -2 10 4 0 5 -4 13 -10 16 -5
3 -10 2 -10 -4z"/>
<path d="M5626 5105 c-3 -9 0 -15 9 -15 16 0 20 16 6 24 -5 3 -11 -1 -15 -9z"/>
<path d="M5780 5076 c7 -7 14 -6 21 1 9 9 7 12 -9 10 -14 -1 -18 -5 -12 -11z"/>
<path d="M5576 5062 c-2 -4 2 -13 10 -20 8 -7 14 -10 14 -6 0 3 6 2 13 -4 7
-6 18 -7 25 -3 8 5 0 13 -23 24 -19 9 -36 13 -39 9z"/>
<path d="M5730 5050 c0 -5 -6 -9 -12 -7 -7 1 -14 -7 -16 -18 -2 -16 3 -21 23
-23 14 -1 25 3 25 9 0 5 -5 7 -11 3 -9 -5 -10 1 -5 20 3 14 4 26 1 26 -3 0 -5
-4 -5 -10z"/>
<path d="M4360 5000 c0 -11 6 -20 13 -20 8 0 14 7 14 15 0 8 -6 16 -14 19 -8
3 -13 -2 -13 -14z"/>
<path d="M5543 5006 c-4 -7 -17 -15 -27 -17 -14 -3 -19 -13 -20 -37 -1 -17 2
-32 6 -32 4 0 14 -8 24 -17 16 -16 16 -16 9 6 -6 20 -4 22 22 19 22 -2 27 1
25 15 -2 13 4 17 24 17 31 0 23 15 -25 43 -25 15 -31 15 -38 3z"/>
<path d="M4417 4964 c3 -7 9 -14 14 -14 14 0 10 17 -5 23 -10 4 -13 1 -9 -9z"/>
<path d="M5708 4973 c7 -3 16 -2 19 1 4 3 -2 6 -13 5 -11 0 -14 -3 -6 -6z"/>
<path d="M4460 4940 c0 -6 7 -10 15 -10 8 0 15 2 15 4 0 2 -7 6 -15 10 -8 3
-15 1 -15 -4z"/>
<path d="M5290 4850 c0 -5 7 -10 15 -10 8 0 15 5 15 10 0 6 -7 10 -15 10 -8 0
-15 -4 -15 -10z"/>
</g>
</svg>
