<?xml version="1.0" encoding="utf-8"?>
<!-- Generator: Adobe Illustrator 18.1.1, SVG Export Plug-In . SVG Version: 6.00 Build 0)  -->
<svg version="1.1" id="Layer_1" xmlns="http://www.w3.org/2000/svg" xmlns:xlink="http://www.w3.org/1999/xlink" x="0px" y="0px"
	 viewBox="0 0 841.9 595.3" enable-background="new 0 0 841.9 595.3" xml:space="preserve">
<g>
	<g id="SC_Logo.tif_1_">
		<g>
			<path fill-rule="evenodd" clip-rule="evenodd" d="M216.1,238.4c-0.7,0.1-1.9-0.1-2.8-0.2c-0.9-0.1-1.8-0.2-2.6-0.3
				c-1.9-0.2-3.8-0.4-5.4-0.6c0.7-4.9,1.3-10,1.3-15.4c0-2.8-0.1-5.4-0.4-7.9c-0.3-2.5-0.7-4.9-1.5-6.8c-0.4-1-0.9-1.8-1.8-2.4
				c-0.8-0.5-2.3-0.6-3.4-0.1c-1.9,0.9-2.5,3.1-2.7,5.7c-0.4,5.4,0,10.9,0.9,15.5c0.9,4.6,2.2,8.9,3.7,13.1
				c1.4,4.2,2.8,8.3,4.3,12.4c1.5,4.1,3,8.1,4.5,12.2c2.9,8.2,5.6,16.5,6.5,26.9c0.4,5.2,0.4,10.9-0.5,15.6
				c-1.5,8.2-5.8,13.8-14.5,14.6c-1.2,0.1-2.6,0-4.1,0c-2.5,0-4.8-0.7-6.6-1.6c-5.5-2.8-8.2-8.4-9.5-15.4c-0.9-4.7-1-10.3-0.8-15.7
				c0.2-5.4,0.8-10.3,1.5-15.2c0,0,0,0,0-0.1c3.5,0.5,7.2,0.8,10.8,1.3c-0.5,3.6-1.1,7.2-1.3,11.1c-0.2,3.8-0.2,8,0.1,11.7
				c0.3,3.4,0.9,7.4,2.6,9.7c0.4,0.6,1,1.1,1.7,1.4c0.7,0.3,1.9,0.2,2.6,0c1.6-0.5,2-1.9,2.3-3.9c0.2-1.9,0.2-4,0.2-6
				c0-8.2-0.8-15.6-2.7-22c-0.5-1.6-1-3.1-1.6-4.6c-3.2-9.1-6.8-17.7-9.9-27c-2.1-6.2-4-12.5-5-19.7c-1-7-1.3-16.5,0.9-22.2
				c2-5.1,5.9-8.6,11.6-9.8c0.8-0.2,1.8-0.4,2.7-0.4c1-0.1,2.1,0,3.2,0c0.3,0,0.7-0.1,0.9,0.1c9.9,0.5,13.9,7.4,15.4,16.4
				C218.5,218.2,217.3,229.5,216.1,238.4z"/>
			<path fill-rule="evenodd" clip-rule="evenodd" d="M422.4,193.8c0,41.6,0,83.3,0,125c-5.1,0-10.5,0.1-15.6,0
				c0-0.2,0.2-0.4,0.4-0.4c2.6-1.5,4.3-4.2,5.5-7.1c4-9.2,3.3-24.9,1.8-36.4c0,0,0,0,0-0.1c-3.8,0.3-7.6,0.7-11.4,1.1
				c0.4,3.6,0.8,7.3,0.8,11.1c0,3.9,0.2,8,0,11.9c-0.2,3.7-0.7,7.5-2.9,9.1c-1.3,0.9-3.2,0.8-4.6,0.1c-1.3-0.7-1.8-2.1-2-3.9
				c-0.2-1.9-0.2-3.8-0.1-5.8c0.1-5.8,0.1-12.1,0.1-18c0-20.1,0-40.1,0-60.2c0-2,0-4-0.1-5.9c-0.1-4.7-0.4-10.9,4.7-10
				c2.4,0.4,3.3,2.7,3.9,5c0.4,1.6,0.7,3.4,0.9,5.1c0.7,7.6,0.3,15.7-0.5,22.7c3.6,0.6,7.4,0.9,11.2,1.3c1.9-15.4,3.4-37.9-7.4-44.4
				C412,193.6,417.2,193.8,422.4,193.8z"/>
			<path fill-rule="evenodd" clip-rule="evenodd" d="M515,193.8C515,193.9,515,193.9,515,193.8c0,41.6,0,83.2,0,124.8
				c-1.3,0.2-3.1,0.1-4.5,0.1c-1.4-15.6-3-31.2-4.4-46.8c-1.9-20.8-3.8-41.7-5.7-62.5c-0.2-2.6-0.5-5.2-0.7-7.8
				c-0.3-2.6-0.5-5.2-0.7-7.8C504.3,193.8,509.8,193.6,515,193.8z"/>
			<path fill-rule="evenodd" clip-rule="evenodd" d="M630.6,193.8c0,0.3-0.3,0.3-0.4,0.3c-0.4,0.2-0.9,0.6-1.3,0.9
				c-3.9,3-6.2,7.5-6.8,14c-0.3,3.8-0.2,7.7,0.1,11.4c0.3,3.6,0.9,7.2,1.6,10.3c1.5,6.3,3.5,12.3,5.6,18.2
				c2.1,5.9,4.3,11.6,6.5,17.3c2.2,5.7,4.4,11.5,5.4,18.4c0.5,3.5,0.7,7.2,0.9,11c0.2,3.7,0.4,7.9-0.7,10.8
				c-0.5,1.4-1.6,2.6-3.5,2.3c-1.5-0.3-2.5-1.4-3.2-2.7c-1.4-2.5-2-6.2-2.2-9.7c-0.6-7.8,0.4-15.3,1.3-22.2
				c-3.5-0.5-7.2-0.9-10.8-1.3c-2.1,11.5-2.9,28,1.2,37.8c1.2,2.9,2.8,5.4,5.1,7.2c0.3,0.2,0.7,0.5,0.8,0.9c-12.3,0-24.6,0-37,0
				c0,0,0,0-0.1,0c0-16.7,0-33.4,0-50c4.6,0.4,9,0.1,12.6-1c3.6-1.1,6.4-2.8,8.4-5.5c2-2.6,3.1-6.4,3.1-10.8c0-2.2,0.1-4.6,0.1-6.9
				c0-7-0.1-13.8-0.1-20.9c0-4.7,0.2-9.4-0.1-13.7c-0.7-8.7-4-14.6-11.7-16.1c2-0.2,4,0,6-0.1c3-0.1,6.5,0,9.6,0
				C624.3,193.8,627.5,193.7,630.6,193.8z"/>
			<path fill-rule="evenodd" clip-rule="evenodd" d="M661.3,193.8c0,41.7,0,83.3,0,125c-3.6,0-7.3,0-10.8,0c0-0.4,0.5-0.6,0.7-0.7
				c0.9-0.5,1.6-1.4,2.2-2.2c2.5-3.2,3.9-7.8,4.4-13.2c0.7-7.4,0-15.3-1.4-21.6c-1.3-6.4-3.4-12.2-5.5-18
				c-2.1-5.8-4.2-11.5-6.2-17.2c-2-5.8-4.1-11.4-5.7-17.8c-0.8-3.1-1.4-6.6-1.4-10.4c0-1.9,0-4,0-5.9c0-1.9,0.1-3.7,0.6-5.2
				c0.5-1.5,1.6-2.4,3.1-2.7c2-0.4,3,0.7,3.8,1.9c1.4,2.4,1.9,6,2.2,9.5c0.3,3.5,0.3,7.7,0,11.2c-0.3,3.7-0.6,7.2-1.1,10.7
				c3.5,0.4,7.1,0.8,10.7,1.1c1.3-7.7,2.2-16.9,1.4-25.6c-0.7-8.4-3.1-15.5-8.6-18.8C653.6,193.6,657.4,193.8,661.3,193.8z"/>
			<path fill-rule="evenodd" clip-rule="evenodd" d="M266.3,193.8c6.2,0,12.4,0,18.6,0c3.7,41.8,7.6,83.4,11.4,124.9
				c-5.1,0-10.1,0-15.2,0c-0.3-8.5-0.8-16.8-1.2-25.3c-3.4-0.2-7.1,0-10.7-0.1c-0.9,8.3-1.3,16.9-2,25.4c0,0,0,0-0.1,0
				c-4.6,0-9.1,0-13.7,0C257.8,277.1,262,235.5,266.3,193.8C266.2,193.8,266.2,193.8,266.3,193.8z M274.4,220.4
				c0,0.6-0.1,1.2-0.1,1.8c-1.4,18.3-2.7,36.9-4,55.2c-0.1,1.2-0.3,2.5-0.2,3.7c3,0,6,0,8.9,0c-1.2-17.5-2.3-35.8-3.5-53.5
				c-0.1-1.7-0.4-3.8-0.4-5.7C274.9,221.4,275,220.2,274.4,220.4C274.4,220.3,274.4,220.3,274.4,220.4z"/>
			<path fill-rule="evenodd" clip-rule="evenodd" d="M374.9,193.8c4.1,0,8.4,0,12.4,0c-0.2,0.5-0.9,0.6-1.3,0.9
				c-3.1,2-5.2,5-6.3,9.1c-1.3,4.7-0.9,10.8-0.9,16.8c0,23.8,0,47.5,0,71.3c0,5.9-0.5,12.1,0.7,16.8c1.2,4.5,3.9,7.5,7.4,9.7
				c0.1,0.1,0.2,0.1,0.2,0.2c-4.1,0-8.2,0-12.4,0C374.8,277.1,374.8,235.5,374.9,193.8C374.8,193.8,374.8,193.8,374.9,193.8z"/>
			<path fill-rule="evenodd" clip-rule="evenodd" d="M437.7,193.8c3.3,0,6.6,0,9.9,0c0.2,17.9,0.2,36.3,0,54.2c-3.3,0-6.6,0-10,0
				C437.6,230,437.6,211.8,437.7,193.8C437.7,193.8,437.7,193.8,437.7,193.8z"/>
			<path fill-rule="evenodd" clip-rule="evenodd" d="M463,193.8c5.7,0,11.4,0,17.1,0c-4.1,41.7-8.5,83.2-12.6,124.9
				c-1.4,0.2-3.2,0.1-4.6,0.1C462.9,277.2,462.9,235.4,463,193.8C462.9,193.8,462.9,193.8,463,193.8z"/>
			<path fill-rule="evenodd" clip-rule="evenodd" d="M532.6,193.8c7.1,0,14.2,0,21.3,0c-3.1,22.5-6.3,45-9.5,67.4
				c-0.3,2.3-0.7,4.7-1,7.2c-0.1,0.4-0.1,2.1-0.9,1.9c-0.2-0.1-0.3-0.7-0.4-1c-0.5-2.7-0.7-5.7-1-8.4c-2.1-15.9-4.1-31.9-6.2-47.9
				c-0.8-5.9-1.5-12-2.3-18C532.6,194.6,532.5,194.1,532.6,193.8C532.6,193.8,532.6,193.8,532.6,193.8z"/>
			<path fill-rule="evenodd" clip-rule="evenodd" d="M569.3,193.8c2.9,0,5.7,0,8.6,0c0,0,0,0,0.1,0c0,41.6,0,83.3,0,124.9
				c0,0.1,0,0.1-0.1,0.1c-2.9,0-5.8,0-8.6,0c0,0,0,0-0.1,0C569.2,277.1,569.2,235.4,569.3,193.8
				C569.2,193.8,569.3,193.8,569.3,193.8z"/>
			<path fill-rule="evenodd" clip-rule="evenodd" d="M218.7,193.8c13.1,0,26.2,0,39.2,0c0,4.1,0,8.2,0,12.4c-4,0-7.9,0-11.9,0
				c-0.2,37.3-0.2,75,0,112.3c-4.9,0.2-10.1,0-15.2,0.1c0-37.5,0-74.9,0-112.4c0,0,0,0,0-0.1c-4,0-8.1,0-12.1,0c0,0,0,0,0-0.1
				C218.6,202.1,218.6,198,218.7,193.8C218.7,193.9,218.7,193.9,218.7,193.8z"/>
			<path fill-rule="evenodd" clip-rule="evenodd" d="M292.1,193.8c13,0,26,0,39.1,0c0,4.1,0,8.3,0,12.4c-3.9,0-7.9,0-11.8,0
				c0,0,0,0-0.1,0c-0.2,37.3,0,74.9-0.1,112.4c-5.1,0-10.1,0-15.2,0c0-37.3,0-74.9,0-112.3c0,0,0,0,0-0.1c-3.8-0.3-7.9-0.1-12-0.1
				c0,0-0.1,0-0.1,0C292,202.1,292,198,292.1,193.8C292,193.9,292.1,193.9,292.1,193.8z"/>
			<path fill-rule="evenodd" clip-rule="evenodd" d="M335.3,193.8c10.5,0,21.1,0,31.6,0c0,0,0,0,0,0.1c0,4.1,0,8.2,0,12.3
				c-5.5,0.1-11.1,0-16.6,0c-0.3,13.5,0,27.7-0.1,41.5c1.1,0.2,2.2,0.1,3.4,0.2c3.5,0.1,7.1-0.1,10.6,0c0,0,0,0,0,0.1
				c0,4.1,0,8.4,0,12.4c-4.6,0-9.3,0-13.9,0c-0.2,15,0,30.7-0.1,45.9c5.5,0.1,11.2,0,16.8,0c0,4.1,0,8.2,0,12.3c0,0,0,0,0,0.1
				c-10.6,0-21.1,0-31.7,0C335.2,277.2,335.2,235.4,335.3,193.8C335.3,193.9,335.3,193.9,335.3,193.8z"/>
			<path fill-rule="evenodd" clip-rule="evenodd" d="M593.1,256.3c0-16.8,0-33.7,0-50.5c1.9,0,4.5-0.3,6,0.3c2.9,1,2.9,5.4,2.9,9.6
				c0,8.3,0,16.7,0,25.1c0,2.8,0.1,5.4,0.1,8.2c0,2.5-0.2,5.5-1.7,6.5C598.8,256.6,595.8,256.3,593.1,256.3z"/>
			<path fill-rule="evenodd" clip-rule="evenodd" d="M493,281.2c-2.9,0.2-6.1,0-9.1,0.1c0-1.2,0.1-2.4,0.2-3.7
				c1.4-18.9,2.7-37.6,4.1-56.7c0-0.4,0-0.8,0.1-1c0.6-0.2,0.5,0.8,0.5,1.6c0.1,1.9,0.3,4,0.4,5.8
				C490.5,245.4,491.8,263.3,493,281.2z"/>
			<path fill-rule="evenodd" clip-rule="evenodd" d="M528.5,245.8c3.3,24.2,6.2,48.6,9.3,72.9c-3.1,0-6.2,0-9.3,0
				C528.5,294.5,528.5,270.2,528.5,245.8z"/>
			<path fill-rule="evenodd" clip-rule="evenodd" d="M555.6,245.9c0.3,24.1,0.1,48.6,0.1,72.9c-3,0-6.1,0-9.1,0
				C549.6,294.4,552.7,270.3,555.6,245.9z"/>
			<path fill-rule="evenodd" clip-rule="evenodd" d="M437.8,260.5c3.3,0,6.7,0,10,0c0,19.4,0,38.8,0,58.2c-3.2,0.2-6.8,0-10.1,0.1
				C437.6,299.4,437.6,279.9,437.8,260.5C437.7,260.5,437.7,260.5,437.8,260.5z"/>
			<path fill-rule="evenodd" clip-rule="evenodd" d="M493.9,293.6c0.4,8.5,0.9,16.7,1.2,25.2c-4.6,0-9.2,0-13.8,0
				c0.2-3.9,0.5-8.2,0.9-12.7c0.3-3.4,0.5-7.4,0.8-11c0-0.6,0-1.5,0.3-1.5c0.3-0.1,0.9,0,1.3,0C487.6,293.5,490.9,293.5,493.9,293.6
				z"/>
		</g>
	</g>
	<g>
		<path d="M192.2,402.3l-0.4-11h-4.2l-0.7,11h-6.3l5.5-60.3h7.9l5.5,60.3H192.2z M190,357.1l-1.8,26.6h3.1L190,357.1z"/>
		<path d="M214.3,402.3c-1.1,0-1.7-6.1-1.7-9.3v-14.2c0-1.4-0.5-2.4-1.5-2.4h-1.7v25.9h-7.1v-60.3h9.2c3.5,0,8,1.8,8,9.5v15.4
			c0,2.8-1.4,4.6-3.3,6.2c1.9,1.6,3.5,3.4,3.5,6.3v12.8c0,3.8,0.5,6.9,0.9,9.8v0.3H214.3z M212.4,351.7c0-1.7-0.5-2.4-1.3-2.4h-1.8
			v20.3h1.8c0.8,0,1.3-0.6,1.3-2.5V351.7z"/>
		<path d="M232.3,403c-4.9,0-9-4.2-9-10.3v-41.1c0-6.1,4.1-10.3,9-10.3c5,0,9,4.3,9,10.3v41.1C241.3,398.9,237.3,403,232.3,403z
			 M234.1,351.1c0-1.4-0.6-2.2-1.8-2.2c-1.2,0-1.8,0.8-1.8,2.2v42.2c0,1.3,0.6,2.2,1.8,2.2c1.2,0,1.8-0.8,1.8-2.2V351.1z"/>
		<path d="M254.2,403c-4.9,0-8.8-4.2-8.8-10.3v-50.7h7v51.2c0,1.3,0.7,2.2,1.8,2.2c1.2,0,1.9-0.8,1.9-2.2v-51.2h6.7v50.7
			C262.8,398.9,259.1,403,254.2,403z"/>
		<path d="M280.3,402.3l-5.9-29.8l-1.4-8.1v37.9h-5.9v-60.3h7.3l4.9,29.3l1.1,8.3v-37.6h5.8v60.3H280.3z"/>
		<path d="M300.4,402.3h-9.6v-60.3h9.6c3.6,0,8.1,1.8,8.1,9.5v41.3C308.4,400.5,304,402.3,300.4,402.3z M301.4,351.7
			c0-1.7-0.6-2.4-1.7-2.4h-1.8v45.9h1.8c1.2,0,1.7-0.7,1.7-2.4V351.7z"/>
		<path d="M331.8,349.7v52.6h-7.1v-52.6h-5.3v-7.7h17.6v7.7H331.8z"/>
		<path d="M350.7,402.3v-25.9H347v25.9h-7.1v-60.3h7.1v26.8h3.7v-26.8h7v60.3H350.7z"/>
		<path d="M362.3,402.3v-60.3H377v7.2h-7.6v18.4h5.2v7.2h-5.2v20.2h7.6v7.2H362.3z"/>
		<path d="M409.2,402.3h-5.8l-2.5-35l-3.2,35h-5.8l-5-60.3h6.9l2,39.5l2.9-39.5h5.6l2.2,39.5l2.7-39.5h6.5L409.2,402.3z"/>
		<path d="M426.3,403c-4.9,0-9-4.2-9-10.3v-41.1c0-6.1,4.1-10.3,9-10.3c5,0,9,4.3,9,10.3v41.1C435.3,398.9,431.3,403,426.3,403z
			 M428.1,351.1c0-1.4-0.6-2.2-1.8-2.2c-1.2,0-1.8,0.8-1.8,2.2v42.2c0,1.3,0.6,2.2,1.8,2.2c1.2,0,1.8-0.8,1.8-2.2V351.1z"/>
		<path d="M451.7,402.3c-1.1,0-1.7-6.1-1.7-9.3v-14.2c0-1.4-0.5-2.4-1.5-2.4h-1.7v25.9h-7.1v-60.3h9.2c3.5,0,8,1.8,8,9.5v15.4
			c0,2.8-1.4,4.6-3.3,6.2c1.9,1.6,3.5,3.4,3.5,6.3v12.8c0,3.8,0.5,6.9,0.9,9.8v0.3H451.7z M449.8,351.7c0-1.7-0.5-2.4-1.3-2.4h-1.8
			v20.3h1.8c0.8,0,1.3-0.6,1.3-2.5V351.7z"/>
		<path d="M461.1,402.3v-60.3h7v53.3h7.2v7H461.1z"/>
		<path d="M487.8,402.3h-9.6v-60.3h9.6c3.6,0,8.1,1.8,8.1,9.5v41.3C495.8,400.5,491.4,402.3,487.8,402.3z M488.8,351.7
			c0-1.7-0.6-2.4-1.7-2.4h-1.8v45.9h1.8c1.2,0,1.7-0.7,1.7-2.4V351.7z"/>
		<path d="M518.2,402.3l-0.4-11h-4.2l-0.7,11h-6.3l5.5-60.3h7.9l5.5,60.3H518.2z M516.1,357.1l-1.8,26.6h3.1L516.1,357.1z"/>
		<path d="M541.3,402.3l-5.9-29.8l-1.4-8.1v37.9h-5.9v-60.3h7.3l4.9,29.3l1.1,8.3v-37.6h5.8v60.3H541.3z"/>
		<path d="M561.3,402.3h-9.6v-60.3h9.6c3.6,0,8.1,1.8,8.1,9.5v41.3C569.4,400.5,564.9,402.3,561.3,402.3z M562.3,351.7
			c0-1.7-0.6-2.4-1.7-2.4h-1.8v45.9h1.8c1.2,0,1.7-0.7,1.7-2.4V351.7z"/>
		<path d="M591.5,402.3h-9.2v-60.3h9.2c3.5,0,8,1.8,8,9.5v13.8c0,2.9-1.3,4.7-3.3,6.3c2,1.6,3.3,3.4,3.3,6.3v14.9
			C599.5,400.5,595.1,402.3,591.5,402.3z M592.6,351.7c0-1.7-0.4-2.4-1.4-2.4h-1.8v19.2h1.8c0.9,0,1.4-0.7,1.4-2.4V351.7z
			 M592.6,377.7c0-1.7-0.4-2.4-1.4-2.4h-1.8v19.9h1.8c0.9,0,1.4-0.7,1.4-2.4V377.7z"/>
		<path d="M613,402.3l-0.4-11h-4.2l-0.7,11h-6.3l5.5-60.3h7.9l5.5,60.3H613z M610.8,357.1l-1.8,26.6h3.1L610.8,357.1z"/>
		<path d="M631.6,403c-4.9,0-9.2-4.2-9.2-10.3v-41.1c0-6.1,4.3-10.3,9.2-10.3c5.3,0,8.1,4.3,8.1,10.3v11.5h-5.9v-11.8
			c0-1.4-0.5-2.4-2.1-2.4c-1.5,0-2.1,1.1-2.1,2.4V393c0,1.3,0.6,2.4,2.1,2.4c1.5,0,2.1-1.1,2.1-2.4v-11.9h5.9v11.6
			C639.6,398.9,636.8,403,631.6,403z"/>
		<path d="M654.2,402.3l-2.4-24.4l-1.5,9v15.5h-7.1v-60.3h7.1v26.8l4.1-26.8h6.7l-4.6,25.8l4.8,34.5H654.2z"/>
	</g>
</g>
</svg>
